<mxfile host="app.diagrams.net" modified="2024-04-04T11:41:24.497Z" agent="Mozilla/5.0 (Windows NT 10.0; Win64; x64) AppleWebKit/537.36 (KHTML, like Gecko) Chrome/123.0.0.0 Safari/537.36" etag="sP2ooYDilvS8QJoFmz_q" version="24.2.2" type="device">
  <diagram name="페이지-1" id="fLK22L0cyS2KONPvhXHz">
    <mxGraphModel dx="3695" dy="375" grid="1" gridSize="10" guides="1" tooltips="1" connect="1" arrows="1" fold="1" page="1" pageScale="1" pageWidth="827" pageHeight="1169" math="0" shadow="0">
      <root>
        <mxCell id="0" />
        <mxCell id="1" parent="0" />
        <mxCell id="fRdi2J-xlvi1yjMBcKha-88" value="게시글 등록" style="whiteSpace=wrap;html=1;rounded=1;shadow=1;strokeWidth=1;fontSize=16;align=center;fillColor=#f5f5f5;strokeColor=#666666;" vertex="1" parent="1">
          <mxGeometry x="-402" y="2220.5" width="125" height="45" as="geometry" />
        </mxCell>
        <mxCell id="fRdi2J-xlvi1yjMBcKha-90" value="댓글 작성" style="whiteSpace=wrap;html=1;rounded=1;shadow=1;strokeWidth=1;fontSize=16;align=center;fillColor=#f5f5f5;strokeColor=#666666;" vertex="1" parent="1">
          <mxGeometry x="-402" y="2460" width="125" height="45" as="geometry" />
        </mxCell>
        <mxCell id="fRdi2J-xlvi1yjMBcKha-91" value="게시글 수정" style="whiteSpace=wrap;html=1;rounded=1;shadow=1;strokeWidth=1;fontSize=16;align=center;fillColor=#f5f5f5;strokeColor=#666666;" vertex="1" parent="1">
          <mxGeometry x="-400" y="2300.5" width="125" height="45" as="geometry" />
        </mxCell>
        <mxCell id="fRdi2J-xlvi1yjMBcKha-92" value="게시글 삭제" style="whiteSpace=wrap;html=1;rounded=1;shadow=1;strokeWidth=1;fontSize=16;align=center;fillColor=#f5f5f5;strokeColor=#666666;" vertex="1" parent="1">
          <mxGeometry x="-400" y="2378" width="125" height="45" as="geometry" />
        </mxCell>
        <mxCell id="fRdi2J-xlvi1yjMBcKha-93" value="댓글 수정" style="whiteSpace=wrap;html=1;rounded=1;shadow=1;strokeWidth=1;fontSize=16;align=center;fillColor=#f5f5f5;strokeColor=#666666;" vertex="1" parent="1">
          <mxGeometry x="-400" y="2550" width="125" height="45" as="geometry" />
        </mxCell>
        <mxCell id="fRdi2J-xlvi1yjMBcKha-94" value="댓글 삭제" style="whiteSpace=wrap;html=1;rounded=1;shadow=1;strokeWidth=1;fontSize=16;align=center;fillColor=#f5f5f5;strokeColor=#666666;" vertex="1" parent="1">
          <mxGeometry x="-400" y="2630" width="125" height="45" as="geometry" />
        </mxCell>
        <mxCell id="fRdi2J-xlvi1yjMBcKha-95" value="통합 관리자" style="whiteSpace=wrap;html=1;rounded=1;shadow=1;strokeWidth=1;fontSize=16;align=center;fillColor=#f5f5f5;strokeColor=#666666;" vertex="1" parent="1">
          <mxGeometry x="-707.5" y="1973" width="210" height="40" as="geometry" />
        </mxCell>
        <mxCell id="fRdi2J-xlvi1yjMBcKha-96" value="일반 사용자" style="whiteSpace=wrap;html=1;rounded=1;shadow=1;strokeWidth=1;fontSize=16;align=center;fillColor=#f5f5f5;strokeColor=#666666;" vertex="1" parent="1">
          <mxGeometry x="-420" y="1973" width="330" height="40" as="geometry" />
        </mxCell>
        <mxCell id="fRdi2J-xlvi1yjMBcKha-257" style="edgeStyle=orthogonalEdgeStyle;rounded=0;orthogonalLoop=1;jettySize=auto;html=1;exitX=0.5;exitY=1;exitDx=0;exitDy=0;entryX=0.5;entryY=0;entryDx=0;entryDy=0;" edge="1" parent="1" source="fRdi2J-xlvi1yjMBcKha-98" target="fRdi2J-xlvi1yjMBcKha-176">
          <mxGeometry relative="1" as="geometry" />
        </mxCell>
        <mxCell id="fRdi2J-xlvi1yjMBcKha-258" style="edgeStyle=orthogonalEdgeStyle;rounded=0;orthogonalLoop=1;jettySize=auto;html=1;exitX=0.5;exitY=1;exitDx=0;exitDy=0;entryX=0.5;entryY=0;entryDx=0;entryDy=0;" edge="1" parent="1" source="fRdi2J-xlvi1yjMBcKha-98" target="fRdi2J-xlvi1yjMBcKha-179">
          <mxGeometry relative="1" as="geometry" />
        </mxCell>
        <mxCell id="fRdi2J-xlvi1yjMBcKha-259" style="edgeStyle=orthogonalEdgeStyle;rounded=0;orthogonalLoop=1;jettySize=auto;html=1;exitX=0.5;exitY=1;exitDx=0;exitDy=0;entryX=0.5;entryY=0;entryDx=0;entryDy=0;" edge="1" parent="1" source="fRdi2J-xlvi1yjMBcKha-98" target="fRdi2J-xlvi1yjMBcKha-178">
          <mxGeometry relative="1" as="geometry" />
        </mxCell>
        <mxCell id="fRdi2J-xlvi1yjMBcKha-260" style="edgeStyle=orthogonalEdgeStyle;rounded=0;orthogonalLoop=1;jettySize=auto;html=1;exitX=0.5;exitY=1;exitDx=0;exitDy=0;entryX=0.5;entryY=0;entryDx=0;entryDy=0;" edge="1" parent="1" source="fRdi2J-xlvi1yjMBcKha-98" target="fRdi2J-xlvi1yjMBcKha-180">
          <mxGeometry relative="1" as="geometry">
            <Array as="points">
              <mxPoint x="25" y="2758" />
              <mxPoint x="664" y="2758" />
            </Array>
          </mxGeometry>
        </mxCell>
        <mxCell id="fRdi2J-xlvi1yjMBcKha-98" value="음성 제어" style="whiteSpace=wrap;html=1;rounded=1;shadow=1;strokeWidth=1;fontSize=16;align=center;fillColor=#f5f5f5;strokeColor=#666666;" vertex="1" parent="1">
          <mxGeometry x="-37" y="2525.37" width="125" height="50" as="geometry" />
        </mxCell>
        <mxCell id="fRdi2J-xlvi1yjMBcKha-99" value="&lt;font style=&quot;font-size: 25px;&quot;&gt;Application&lt;/font&gt;" style="whiteSpace=wrap;html=1;rounded=1;shadow=1;strokeWidth=1;fontSize=16;align=center;fillColor=#dae8fc;strokeColor=#6c8ebf;" vertex="1" parent="1">
          <mxGeometry x="-734.75" y="1880" width="674.75" height="40" as="geometry" />
        </mxCell>
        <mxCell id="fRdi2J-xlvi1yjMBcKha-100" value="보유기기 삭제" style="whiteSpace=wrap;html=1;rounded=1;shadow=1;strokeWidth=1;fontSize=16;align=center;fillColor=#f5f5f5;strokeColor=#666666;" vertex="1" parent="1">
          <mxGeometry x="-61.5" y="2300.5" width="125" height="50" as="geometry" />
        </mxCell>
        <mxCell id="fRdi2J-xlvi1yjMBcKha-255" style="edgeStyle=orthogonalEdgeStyle;rounded=0;orthogonalLoop=1;jettySize=auto;html=1;exitX=0.5;exitY=1;exitDx=0;exitDy=0;entryX=0.5;entryY=0;entryDx=0;entryDy=0;" edge="1" parent="1" source="fRdi2J-xlvi1yjMBcKha-102" target="fRdi2J-xlvi1yjMBcKha-177">
          <mxGeometry relative="1" as="geometry">
            <mxPoint x="60" y="2920" as="targetPoint" />
            <Array as="points">
              <mxPoint x="-170" y="2670" />
              <mxPoint x="24" y="2670" />
              <mxPoint x="24" y="2940" />
            </Array>
          </mxGeometry>
        </mxCell>
        <mxCell id="fRdi2J-xlvi1yjMBcKha-102" value="버튼 제어" style="whiteSpace=wrap;html=1;rounded=1;shadow=1;strokeWidth=1;fontSize=16;align=center;fillColor=#f5f5f5;strokeColor=#666666;" vertex="1" parent="1">
          <mxGeometry x="-232.75" y="2525.37" width="125" height="50" as="geometry" />
        </mxCell>
        <mxCell id="fRdi2J-xlvi1yjMBcKha-128" value="" style="endArrow=none;dashed=1;html=1;dashPattern=1 3;strokeWidth=3;rounded=0;" edge="1" parent="1">
          <mxGeometry width="50" height="50" relative="1" as="geometry">
            <mxPoint x="-440" y="2680" as="sourcePoint" />
            <mxPoint x="-440" y="1978" as="targetPoint" />
          </mxGeometry>
        </mxCell>
        <mxCell id="fRdi2J-xlvi1yjMBcKha-131" value="주변 스마트 홈 기기&amp;nbsp;목록 확인" style="whiteSpace=wrap;html=1;rounded=1;shadow=1;strokeWidth=1;fontSize=16;align=center;fillColor=#f5f5f5;strokeColor=#666666;" vertex="1" parent="1">
          <mxGeometry x="126.63" y="2142.25" width="183.5" height="45" as="geometry" />
        </mxCell>
        <mxCell id="fRdi2J-xlvi1yjMBcKha-132" value="주변 스마트 홈 기기 탐색" style="whiteSpace=wrap;html=1;rounded=1;shadow=1;strokeWidth=1;fontSize=16;align=center;fillColor=#f5f5f5;strokeColor=#666666;" vertex="1" parent="1">
          <mxGeometry x="155.87" y="2062.5" width="125" height="45" as="geometry" />
        </mxCell>
        <mxCell id="fRdi2J-xlvi1yjMBcKha-134" value="" style="endArrow=classic;html=1;rounded=0;exitX=0.5;exitY=1;exitDx=0;exitDy=0;entryX=0.5;entryY=0;entryDx=0;entryDy=0;" edge="1" parent="1" source="fRdi2J-xlvi1yjMBcKha-132" target="fRdi2J-xlvi1yjMBcKha-131">
          <mxGeometry width="50" height="50" relative="1" as="geometry">
            <mxPoint x="88.87" y="2308.25" as="sourcePoint" />
            <mxPoint x="138.87" y="2258.25" as="targetPoint" />
          </mxGeometry>
        </mxCell>
        <mxCell id="fRdi2J-xlvi1yjMBcKha-135" value="" style="endArrow=classic;html=1;rounded=0;exitX=0.5;exitY=1;exitDx=0;exitDy=0;entryX=0.5;entryY=0;entryDx=0;entryDy=0;" edge="1" parent="1" source="fRdi2J-xlvi1yjMBcKha-131" target="fRdi2J-xlvi1yjMBcKha-136">
          <mxGeometry width="50" height="50" relative="1" as="geometry">
            <mxPoint x="219.87" y="2118.25" as="sourcePoint" />
            <mxPoint x="210.37" y="2220.5" as="targetPoint" />
          </mxGeometry>
        </mxCell>
        <mxCell id="fRdi2J-xlvi1yjMBcKha-232" style="edgeStyle=orthogonalEdgeStyle;rounded=0;orthogonalLoop=1;jettySize=auto;html=1;exitX=0;exitY=0.5;exitDx=0;exitDy=0;entryX=1;entryY=0.5;entryDx=0;entryDy=0;" edge="1" parent="1" source="fRdi2J-xlvi1yjMBcKha-136" target="fRdi2J-xlvi1yjMBcKha-142">
          <mxGeometry relative="1" as="geometry" />
        </mxCell>
        <mxCell id="fRdi2J-xlvi1yjMBcKha-136" value="주변 스마트 홈 기기&amp;nbsp;등록" style="whiteSpace=wrap;html=1;rounded=1;shadow=1;strokeWidth=1;fontSize=16;align=center;fillColor=#f5f5f5;strokeColor=#666666;" vertex="1" parent="1">
          <mxGeometry x="155.88" y="2220.5" width="125" height="50" as="geometry" />
        </mxCell>
        <mxCell id="fRdi2J-xlvi1yjMBcKha-256" style="edgeStyle=orthogonalEdgeStyle;rounded=0;orthogonalLoop=1;jettySize=auto;html=1;exitX=0.5;exitY=1;exitDx=0;exitDy=0;entryX=0.5;entryY=0;entryDx=0;entryDy=0;" edge="1" parent="1" source="fRdi2J-xlvi1yjMBcKha-138" target="fRdi2J-xlvi1yjMBcKha-177">
          <mxGeometry relative="1" as="geometry">
            <Array as="points">
              <mxPoint x="177" y="2670" />
              <mxPoint x="3" y="2670" />
            </Array>
          </mxGeometry>
        </mxCell>
        <mxCell id="fRdi2J-xlvi1yjMBcKha-138" value="버튼 제어" style="whiteSpace=wrap;html=1;rounded=1;shadow=1;strokeWidth=1;fontSize=16;align=center;fillColor=#f5f5f5;strokeColor=#666666;" vertex="1" parent="1">
          <mxGeometry x="155.88" y="2525.37" width="125" height="50" as="geometry" />
        </mxCell>
        <mxCell id="fRdi2J-xlvi1yjMBcKha-142" value="등록된 스마트 홈&lt;div&gt;&amp;nbsp;기기&amp;nbsp;목록&amp;nbsp; 확인&lt;/div&gt;" style="whiteSpace=wrap;html=1;rounded=1;shadow=1;strokeWidth=1;fontSize=16;align=center;fillColor=#f5f5f5;strokeColor=#666666;" vertex="1" parent="1">
          <mxGeometry x="-240.56" y="2142.25" width="140.62" height="45" as="geometry" />
        </mxCell>
        <mxCell id="fRdi2J-xlvi1yjMBcKha-143" value="주변 스마트 홈 기기 탐색 요청" style="whiteSpace=wrap;html=1;rounded=1;shadow=1;strokeWidth=1;fontSize=16;align=center;fillColor=#f5f5f5;strokeColor=#666666;" vertex="1" parent="1">
          <mxGeometry x="-232.75" y="2062.5" width="125" height="45" as="geometry" />
        </mxCell>
        <mxCell id="fRdi2J-xlvi1yjMBcKha-146" value="" style="endArrow=classic;html=1;rounded=0;exitX=0.5;exitY=1;exitDx=0;exitDy=0;entryX=0.5;entryY=0;entryDx=0;entryDy=0;" edge="1" parent="1" source="fRdi2J-xlvi1yjMBcKha-142" target="fRdi2J-xlvi1yjMBcKha-149">
          <mxGeometry width="50" height="50" relative="1" as="geometry">
            <mxPoint x="-160.75" y="2118" as="sourcePoint" />
            <mxPoint x="-170.25" y="2220.5" as="targetPoint" />
          </mxGeometry>
        </mxCell>
        <mxCell id="fRdi2J-xlvi1yjMBcKha-147" style="edgeStyle=orthogonalEdgeStyle;rounded=0;orthogonalLoop=1;jettySize=auto;html=1;exitX=0.5;exitY=1;exitDx=0;exitDy=0;" edge="1" parent="1" source="fRdi2J-xlvi1yjMBcKha-149" target="fRdi2J-xlvi1yjMBcKha-102">
          <mxGeometry relative="1" as="geometry" />
        </mxCell>
        <mxCell id="fRdi2J-xlvi1yjMBcKha-148" style="edgeStyle=orthogonalEdgeStyle;rounded=0;orthogonalLoop=1;jettySize=auto;html=1;exitX=0.5;exitY=1;exitDx=0;exitDy=0;entryX=0.5;entryY=0;entryDx=0;entryDy=0;" edge="1" parent="1" source="fRdi2J-xlvi1yjMBcKha-149" target="fRdi2J-xlvi1yjMBcKha-98">
          <mxGeometry relative="1" as="geometry" />
        </mxCell>
        <mxCell id="fRdi2J-xlvi1yjMBcKha-149" value="등록된 스마트 홈 기기 선택" style="whiteSpace=wrap;html=1;rounded=1;shadow=1;strokeWidth=1;fontSize=16;align=center;fillColor=#f5f5f5;strokeColor=#666666;" vertex="1" parent="1">
          <mxGeometry x="-232.75" y="2300.5" width="125" height="50" as="geometry" />
        </mxCell>
        <mxCell id="fRdi2J-xlvi1yjMBcKha-151" value="게시물 관리" style="whiteSpace=wrap;html=1;rounded=1;shadow=1;strokeWidth=1;fontSize=16;align=center;fillColor=#f5f5f5;strokeColor=#666666;" vertex="1" parent="1">
          <mxGeometry x="-665" y="2220.5" width="125" height="45" as="geometry" />
        </mxCell>
        <mxCell id="fRdi2J-xlvi1yjMBcKha-152" value="회원 관리" style="whiteSpace=wrap;html=1;rounded=1;shadow=1;strokeWidth=1;fontSize=16;align=center;fillColor=#f5f5f5;strokeColor=#666666;" vertex="1" parent="1">
          <mxGeometry x="-665" y="2062.5" width="125" height="45" as="geometry" />
        </mxCell>
        <mxCell id="fRdi2J-xlvi1yjMBcKha-153" value="게시판 관리" style="whiteSpace=wrap;html=1;rounded=1;shadow=1;strokeWidth=1;fontSize=16;align=center;fillColor=#f5f5f5;strokeColor=#666666;" vertex="1" parent="1">
          <mxGeometry x="-665" y="2140.5" width="125" height="45" as="geometry" />
        </mxCell>
        <mxCell id="fRdi2J-xlvi1yjMBcKha-154" value="기기 등록" style="whiteSpace=wrap;html=1;rounded=1;shadow=1;strokeWidth=1;fontSize=16;align=center;fillColor=#f5f5f5;strokeColor=#666666;" vertex="1" parent="1">
          <mxGeometry x="-665" y="2300.5" width="125" height="45" as="geometry" />
        </mxCell>
        <mxCell id="fRdi2J-xlvi1yjMBcKha-155" style="edgeStyle=orthogonalEdgeStyle;rounded=0;orthogonalLoop=1;jettySize=auto;html=1;exitX=0.5;exitY=1;exitDx=0;exitDy=0;" edge="1" parent="1" source="fRdi2J-xlvi1yjMBcKha-156" target="fRdi2J-xlvi1yjMBcKha-157">
          <mxGeometry relative="1" as="geometry" />
        </mxCell>
        <mxCell id="fRdi2J-xlvi1yjMBcKha-156" value="게시판 선택" style="whiteSpace=wrap;html=1;rounded=1;shadow=1;strokeWidth=1;fontSize=16;align=center;fillColor=#f5f5f5;strokeColor=#666666;" vertex="1" parent="1">
          <mxGeometry x="-400" y="2062.5" width="125" height="45" as="geometry" />
        </mxCell>
        <mxCell id="fRdi2J-xlvi1yjMBcKha-157" value="게시글 이용" style="whiteSpace=wrap;html=1;rounded=1;shadow=1;strokeWidth=1;fontSize=16;align=center;fillColor=#f5f5f5;strokeColor=#666666;" vertex="1" parent="1">
          <mxGeometry x="-401" y="2142.25" width="125" height="45" as="geometry" />
        </mxCell>
        <mxCell id="fRdi2J-xlvi1yjMBcKha-158" value="Zigbee Hub 사용자" style="whiteSpace=wrap;html=1;rounded=1;shadow=1;strokeWidth=1;fontSize=16;align=center;fillColor=#f5f5f5;strokeColor=#666666;" vertex="1" parent="1">
          <mxGeometry x="113.37" y="1973" width="210" height="40" as="geometry" />
        </mxCell>
        <mxCell id="fRdi2J-xlvi1yjMBcKha-175" value="&lt;font style=&quot;font-size: 25px;&quot;&gt;Zigbee Hub&lt;/font&gt;" style="whiteSpace=wrap;html=1;rounded=1;shadow=1;strokeWidth=1;fontSize=16;align=center;fillColor=#dae8fc;strokeColor=#6c8ebf;" vertex="1" parent="1">
          <mxGeometry x="80" y="1880" width="276.75" height="40" as="geometry" />
        </mxCell>
        <mxCell id="fRdi2J-xlvi1yjMBcKha-176" value="세탁기" style="whiteSpace=wrap;html=1;rounded=1;shadow=1;strokeWidth=1;fontSize=16;align=center;fillColor=#dae8fc;strokeColor=#6c8ebf;" vertex="1" parent="1">
          <mxGeometry x="-427.5" y="2940" width="275" height="40" as="geometry" />
        </mxCell>
        <mxCell id="fRdi2J-xlvi1yjMBcKha-177" value="에어컨" style="whiteSpace=wrap;html=1;rounded=1;shadow=1;strokeWidth=1;fontSize=16;align=center;fillColor=#dae8fc;strokeColor=#6c8ebf;" vertex="1" parent="1">
          <mxGeometry x="-112.5" y="2940" width="275" height="40" as="geometry" />
        </mxCell>
        <mxCell id="fRdi2J-xlvi1yjMBcKha-178" value="TV" style="whiteSpace=wrap;html=1;rounded=1;shadow=1;strokeWidth=1;fontSize=16;align=center;fillColor=#dae8fc;strokeColor=#6c8ebf;" vertex="1" parent="1">
          <mxGeometry x="-749.5" y="2940" width="275" height="40" as="geometry" />
        </mxCell>
        <mxCell id="fRdi2J-xlvi1yjMBcKha-179" value="건조기" style="whiteSpace=wrap;html=1;rounded=1;shadow=1;strokeWidth=1;fontSize=16;align=center;fillColor=#dae8fc;strokeColor=#6c8ebf;" vertex="1" parent="1">
          <mxGeometry x="207.5" y="2940" width="275" height="40" as="geometry" />
        </mxCell>
        <mxCell id="fRdi2J-xlvi1yjMBcKha-180" value="조명" style="whiteSpace=wrap;html=1;rounded=1;shadow=1;strokeWidth=1;fontSize=16;align=center;fillColor=#dae8fc;strokeColor=#6c8ebf;" vertex="1" parent="1">
          <mxGeometry x="527.5" y="2940" width="275" height="40" as="geometry" />
        </mxCell>
        <mxCell id="fRdi2J-xlvi1yjMBcKha-181" value="시간 설정 관리" style="whiteSpace=wrap;html=1;rounded=1;shadow=1;strokeWidth=1;fontSize=16;align=center;fillColor=#f5f5f5;strokeColor=#666666;" vertex="1" parent="1">
          <mxGeometry x="-354" y="3135" width="125" height="45" as="geometry" />
        </mxCell>
        <mxCell id="fRdi2J-xlvi1yjMBcKha-182" value="모드 변경 관리" style="whiteSpace=wrap;html=1;rounded=1;shadow=1;strokeWidth=1;fontSize=16;align=center;fillColor=#f5f5f5;strokeColor=#666666;" vertex="1" parent="1">
          <mxGeometry x="-354" y="3225" width="125" height="50" as="geometry" />
        </mxCell>
        <mxCell id="fRdi2J-xlvi1yjMBcKha-183" value="On/Off 관리" style="whiteSpace=wrap;html=1;rounded=1;shadow=1;strokeWidth=1;fontSize=16;align=center;fillColor=#f5f5f5;strokeColor=#666666;" vertex="1" parent="1">
          <mxGeometry x="-39" y="3135" width="125" height="45" as="geometry" />
        </mxCell>
        <mxCell id="fRdi2J-xlvi1yjMBcKha-184" value="온도 조절 관리" style="whiteSpace=wrap;html=1;rounded=1;shadow=1;strokeWidth=1;fontSize=16;align=center;fillColor=#f5f5f5;strokeColor=#666666;" vertex="1" parent="1">
          <mxGeometry x="-39" y="3225" width="125" height="50" as="geometry" />
        </mxCell>
        <mxCell id="fRdi2J-xlvi1yjMBcKha-185" value="메뉴 관리" style="whiteSpace=wrap;html=1;rounded=1;shadow=1;strokeWidth=1;fontSize=16;align=center;fillColor=#f5f5f5;strokeColor=#666666;" vertex="1" parent="1">
          <mxGeometry x="-676" y="3225" width="125" height="50" as="geometry" />
        </mxCell>
        <mxCell id="fRdi2J-xlvi1yjMBcKha-186" value="On/Off 관리" style="whiteSpace=wrap;html=1;rounded=1;shadow=1;strokeWidth=1;fontSize=16;align=center;fillColor=#f5f5f5;strokeColor=#666666;" vertex="1" parent="1">
          <mxGeometry x="-676" y="3135" width="125" height="45" as="geometry" />
        </mxCell>
        <mxCell id="fRdi2J-xlvi1yjMBcKha-187" value="모드 변경" style="whiteSpace=wrap;html=1;rounded=1;shadow=1;strokeWidth=1;fontSize=16;align=center;fillColor=#f5f5f5;strokeColor=#666666;" vertex="1" parent="1">
          <mxGeometry x="281" y="3135" width="125" height="45" as="geometry" />
        </mxCell>
        <mxCell id="fRdi2J-xlvi1yjMBcKha-188" value="시간 설정 관리" style="whiteSpace=wrap;html=1;rounded=1;shadow=1;strokeWidth=1;fontSize=16;align=center;fillColor=#f5f5f5;strokeColor=#666666;" vertex="1" parent="1">
          <mxGeometry x="281" y="3225" width="125" height="50" as="geometry" />
        </mxCell>
        <mxCell id="fRdi2J-xlvi1yjMBcKha-189" value="On/Off 관리" style="whiteSpace=wrap;html=1;rounded=1;shadow=1;strokeWidth=1;fontSize=16;align=center;fillColor=#f5f5f5;strokeColor=#666666;" vertex="1" parent="1">
          <mxGeometry x="601" y="3135" width="125" height="45" as="geometry" />
        </mxCell>
        <mxCell id="fRdi2J-xlvi1yjMBcKha-190" value="조명 밝기 관리" style="whiteSpace=wrap;html=1;rounded=1;shadow=1;strokeWidth=1;fontSize=16;align=center;fillColor=#f5f5f5;strokeColor=#666666;" vertex="1" parent="1">
          <mxGeometry x="601" y="3225" width="125" height="50" as="geometry" />
        </mxCell>
        <mxCell id="fRdi2J-xlvi1yjMBcKha-191" value="모드 변경" style="whiteSpace=wrap;html=1;rounded=1;shadow=1;strokeWidth=1;fontSize=16;align=center;fillColor=#f5f5f5;strokeColor=#666666;" vertex="1" parent="1">
          <mxGeometry x="-39" y="3325" width="125" height="50" as="geometry" />
        </mxCell>
        <mxCell id="fRdi2J-xlvi1yjMBcKha-192" value="&lt;span&gt;바람 세기 관리&lt;/span&gt;" style="whiteSpace=wrap;html=1;rounded=1;shadow=1;strokeWidth=1;fontSize=16;align=center;fillColor=#f5f5f5;strokeColor=#666666;" vertex="1" parent="1">
          <mxGeometry x="-39" y="3425" width="125" height="50" as="geometry" />
        </mxCell>
        <mxCell id="fRdi2J-xlvi1yjMBcKha-193" value="조이스틱 기능" style="whiteSpace=wrap;html=1;rounded=1;shadow=1;strokeWidth=1;fontSize=16;align=center;fillColor=#f5f5f5;strokeColor=#666666;" vertex="1" parent="1">
          <mxGeometry x="-676" y="3425" width="125" height="50" as="geometry" />
        </mxCell>
        <mxCell id="fRdi2J-xlvi1yjMBcKha-194" value="채널 변경 관리" style="whiteSpace=wrap;html=1;rounded=1;shadow=1;strokeWidth=1;fontSize=16;align=center;fillColor=#f5f5f5;strokeColor=#666666;" vertex="1" parent="1">
          <mxGeometry x="-676" y="3325" width="125" height="50" as="geometry" />
        </mxCell>
        <mxCell id="fRdi2J-xlvi1yjMBcKha-195" value="메뉴 검색" style="whiteSpace=wrap;html=1;rounded=1;shadow=1;strokeWidth=1;fontSize=16;align=center;fillColor=#f5f5f5;strokeColor=#666666;" vertex="1" parent="1">
          <mxGeometry x="-676" y="3520" width="125" height="50" as="geometry" />
        </mxCell>
        <mxCell id="fRdi2J-xlvi1yjMBcKha-197" value="" style="endArrow=none;html=1;rounded=0;entryX=0.5;entryY=1;entryDx=0;entryDy=0;exitX=0.5;exitY=0;exitDx=0;exitDy=0;" edge="1" parent="1" source="fRdi2J-xlvi1yjMBcKha-185" target="fRdi2J-xlvi1yjMBcKha-186">
          <mxGeometry width="50" height="50" relative="1" as="geometry">
            <mxPoint x="-603" y="3130" as="sourcePoint" />
            <mxPoint x="-603" y="3100" as="targetPoint" />
          </mxGeometry>
        </mxCell>
        <mxCell id="fRdi2J-xlvi1yjMBcKha-198" value="" style="endArrow=none;html=1;rounded=0;entryX=0.5;entryY=1;entryDx=0;entryDy=0;exitX=0.5;exitY=0;exitDx=0;exitDy=0;" edge="1" parent="1" source="fRdi2J-xlvi1yjMBcKha-194" target="fRdi2J-xlvi1yjMBcKha-185">
          <mxGeometry width="50" height="50" relative="1" as="geometry">
            <mxPoint x="-593" y="3140" as="sourcePoint" />
            <mxPoint x="-593" y="3110" as="targetPoint" />
          </mxGeometry>
        </mxCell>
        <mxCell id="fRdi2J-xlvi1yjMBcKha-199" value="" style="endArrow=none;html=1;rounded=0;entryX=0.5;entryY=1;entryDx=0;entryDy=0;exitX=0.5;exitY=0;exitDx=0;exitDy=0;" edge="1" parent="1" source="fRdi2J-xlvi1yjMBcKha-193" target="fRdi2J-xlvi1yjMBcKha-194">
          <mxGeometry width="50" height="50" relative="1" as="geometry">
            <mxPoint x="-583" y="3150" as="sourcePoint" />
            <mxPoint x="-583" y="3120" as="targetPoint" />
          </mxGeometry>
        </mxCell>
        <mxCell id="fRdi2J-xlvi1yjMBcKha-200" value="" style="endArrow=none;html=1;rounded=0;entryX=0.5;entryY=1;entryDx=0;entryDy=0;exitX=0.5;exitY=0;exitDx=0;exitDy=0;" edge="1" parent="1" source="fRdi2J-xlvi1yjMBcKha-195" target="fRdi2J-xlvi1yjMBcKha-193">
          <mxGeometry width="50" height="50" relative="1" as="geometry">
            <mxPoint x="-573" y="3160" as="sourcePoint" />
            <mxPoint x="-573" y="3130" as="targetPoint" />
          </mxGeometry>
        </mxCell>
        <mxCell id="fRdi2J-xlvi1yjMBcKha-202" value="" style="endArrow=none;html=1;rounded=0;entryX=0.5;entryY=1;entryDx=0;entryDy=0;exitX=0.5;exitY=0;exitDx=0;exitDy=0;" edge="1" parent="1" source="fRdi2J-xlvi1yjMBcKha-182" target="fRdi2J-xlvi1yjMBcKha-181">
          <mxGeometry width="50" height="50" relative="1" as="geometry">
            <mxPoint x="-553" y="3180" as="sourcePoint" />
            <mxPoint x="-553" y="3150" as="targetPoint" />
          </mxGeometry>
        </mxCell>
        <mxCell id="fRdi2J-xlvi1yjMBcKha-204" value="" style="endArrow=none;html=1;rounded=0;entryX=0.5;entryY=1;entryDx=0;entryDy=0;exitX=0.5;exitY=0;exitDx=0;exitDy=0;" edge="1" parent="1" source="fRdi2J-xlvi1yjMBcKha-184" target="fRdi2J-xlvi1yjMBcKha-183">
          <mxGeometry width="50" height="50" relative="1" as="geometry">
            <mxPoint x="34" y="3120" as="sourcePoint" />
            <mxPoint x="34" y="3090" as="targetPoint" />
          </mxGeometry>
        </mxCell>
        <mxCell id="fRdi2J-xlvi1yjMBcKha-205" value="" style="endArrow=none;html=1;rounded=0;entryX=0.5;entryY=1;entryDx=0;entryDy=0;exitX=0.5;exitY=0;exitDx=0;exitDy=0;" edge="1" parent="1" source="fRdi2J-xlvi1yjMBcKha-191" target="fRdi2J-xlvi1yjMBcKha-184">
          <mxGeometry width="50" height="50" relative="1" as="geometry">
            <mxPoint x="44" y="3130" as="sourcePoint" />
            <mxPoint x="44" y="3100" as="targetPoint" />
          </mxGeometry>
        </mxCell>
        <mxCell id="fRdi2J-xlvi1yjMBcKha-206" value="" style="endArrow=none;html=1;rounded=0;entryX=0.5;entryY=1;entryDx=0;entryDy=0;exitX=0.5;exitY=0;exitDx=0;exitDy=0;" edge="1" parent="1" source="fRdi2J-xlvi1yjMBcKha-192" target="fRdi2J-xlvi1yjMBcKha-191">
          <mxGeometry width="50" height="50" relative="1" as="geometry">
            <mxPoint x="54" y="3140" as="sourcePoint" />
            <mxPoint x="54" y="3110" as="targetPoint" />
          </mxGeometry>
        </mxCell>
        <mxCell id="fRdi2J-xlvi1yjMBcKha-208" value="" style="endArrow=none;html=1;rounded=0;entryX=0.5;entryY=1;entryDx=0;entryDy=0;exitX=0.5;exitY=0;exitDx=0;exitDy=0;" edge="1" parent="1" source="fRdi2J-xlvi1yjMBcKha-188" target="fRdi2J-xlvi1yjMBcKha-187">
          <mxGeometry width="50" height="50" relative="1" as="geometry">
            <mxPoint x="92" y="3170" as="sourcePoint" />
            <mxPoint x="92" y="3140" as="targetPoint" />
          </mxGeometry>
        </mxCell>
        <mxCell id="fRdi2J-xlvi1yjMBcKha-210" value="" style="endArrow=none;html=1;rounded=0;entryX=0.5;entryY=1;entryDx=0;entryDy=0;exitX=0.5;exitY=0;exitDx=0;exitDy=0;" edge="1" parent="1" source="fRdi2J-xlvi1yjMBcKha-190" target="fRdi2J-xlvi1yjMBcKha-189">
          <mxGeometry width="50" height="50" relative="1" as="geometry">
            <mxPoint x="384" y="3140" as="sourcePoint" />
            <mxPoint x="384" y="3110" as="targetPoint" />
          </mxGeometry>
        </mxCell>
        <mxCell id="fRdi2J-xlvi1yjMBcKha-228" value="" style="endArrow=classic;html=1;rounded=0;exitX=1;exitY=0.5;exitDx=0;exitDy=0;entryX=0;entryY=0.5;entryDx=0;entryDy=0;" edge="1" parent="1" source="fRdi2J-xlvi1yjMBcKha-143" target="fRdi2J-xlvi1yjMBcKha-132">
          <mxGeometry width="50" height="50" relative="1" as="geometry">
            <mxPoint x="-160" y="2118" as="sourcePoint" />
            <mxPoint x="-160" y="2152" as="targetPoint" />
          </mxGeometry>
        </mxCell>
        <mxCell id="fRdi2J-xlvi1yjMBcKha-230" value="" style="endArrow=classic;html=1;rounded=0;exitX=1;exitY=0.5;exitDx=0;exitDy=0;entryX=0;entryY=0.5;entryDx=0;entryDy=0;" edge="1" parent="1" source="fRdi2J-xlvi1yjMBcKha-149" target="fRdi2J-xlvi1yjMBcKha-100">
          <mxGeometry width="50" height="50" relative="1" as="geometry">
            <mxPoint x="-160" y="2197" as="sourcePoint" />
            <mxPoint x="-160" y="2311" as="targetPoint" />
          </mxGeometry>
        </mxCell>
        <mxCell id="fRdi2J-xlvi1yjMBcKha-238" style="edgeStyle=orthogonalEdgeStyle;rounded=0;orthogonalLoop=1;jettySize=auto;html=1;exitX=0.5;exitY=1;exitDx=0;exitDy=0;entryX=0.5;entryY=0;entryDx=0;entryDy=0;" edge="1" parent="1" source="fRdi2J-xlvi1yjMBcKha-231" target="fRdi2J-xlvi1yjMBcKha-138">
          <mxGeometry relative="1" as="geometry" />
        </mxCell>
        <mxCell id="fRdi2J-xlvi1yjMBcKha-271" style="edgeStyle=orthogonalEdgeStyle;rounded=0;orthogonalLoop=1;jettySize=auto;html=1;exitX=0;exitY=0.5;exitDx=0;exitDy=0;entryX=1;entryY=0.5;entryDx=0;entryDy=0;" edge="1" parent="1" source="fRdi2J-xlvi1yjMBcKha-231" target="fRdi2J-xlvi1yjMBcKha-100">
          <mxGeometry relative="1" as="geometry">
            <mxPoint x="96.87" y="2325.5" as="targetPoint" />
            <Array as="points">
              <mxPoint x="97" y="2415" />
              <mxPoint x="97" y="2326" />
            </Array>
          </mxGeometry>
        </mxCell>
        <mxCell id="fRdi2J-xlvi1yjMBcKha-231" value="등록된 스마트 홈 기기 선택" style="whiteSpace=wrap;html=1;rounded=1;shadow=1;strokeWidth=1;fontSize=16;align=center;fillColor=#f5f5f5;strokeColor=#666666;" vertex="1" parent="1">
          <mxGeometry x="155.88" y="2390" width="125" height="50" as="geometry" />
        </mxCell>
        <mxCell id="fRdi2J-xlvi1yjMBcKha-237" style="edgeStyle=orthogonalEdgeStyle;rounded=0;orthogonalLoop=1;jettySize=auto;html=1;exitX=0.5;exitY=1;exitDx=0;exitDy=0;entryX=0.5;entryY=0;entryDx=0;entryDy=0;" edge="1" parent="1" source="fRdi2J-xlvi1yjMBcKha-234" target="fRdi2J-xlvi1yjMBcKha-231">
          <mxGeometry relative="1" as="geometry" />
        </mxCell>
        <mxCell id="fRdi2J-xlvi1yjMBcKha-234" value="등록된 스마트 홈&lt;div&gt;&amp;nbsp;기기&amp;nbsp;목록&amp;nbsp; 확인&lt;/div&gt;" style="whiteSpace=wrap;html=1;rounded=1;shadow=1;strokeWidth=1;fontSize=16;align=center;fillColor=#f5f5f5;strokeColor=#666666;" vertex="1" parent="1">
          <mxGeometry x="145.69" y="2300" width="145.37" height="50.5" as="geometry" />
        </mxCell>
        <mxCell id="fRdi2J-xlvi1yjMBcKha-235" value="" style="endArrow=classic;html=1;rounded=0;exitX=0.5;exitY=1;exitDx=0;exitDy=0;entryX=0.5;entryY=0;entryDx=0;entryDy=0;" edge="1" parent="1" source="fRdi2J-xlvi1yjMBcKha-136" target="fRdi2J-xlvi1yjMBcKha-234">
          <mxGeometry width="50" height="50" relative="1" as="geometry">
            <mxPoint x="220.37" y="2197" as="sourcePoint" />
            <mxPoint x="220.37" y="2231" as="targetPoint" />
          </mxGeometry>
        </mxCell>
        <mxCell id="fRdi2J-xlvi1yjMBcKha-266" style="edgeStyle=orthogonalEdgeStyle;rounded=0;orthogonalLoop=1;jettySize=auto;html=1;exitX=0.5;exitY=1;exitDx=0;exitDy=0;entryX=0.5;entryY=0;entryDx=0;entryDy=0;" edge="1" parent="1" source="fRdi2J-xlvi1yjMBcKha-240" target="fRdi2J-xlvi1yjMBcKha-186">
          <mxGeometry relative="1" as="geometry" />
        </mxCell>
        <mxCell id="fRdi2J-xlvi1yjMBcKha-240" value="기기 제어" style="whiteSpace=wrap;html=1;rounded=1;shadow=1;strokeWidth=1;fontSize=16;align=center;fillColor=#f5f5f5;strokeColor=#666666;" vertex="1" parent="1">
          <mxGeometry x="-676" y="3040" width="125" height="45" as="geometry" />
        </mxCell>
        <mxCell id="fRdi2J-xlvi1yjMBcKha-267" style="edgeStyle=orthogonalEdgeStyle;rounded=0;orthogonalLoop=1;jettySize=auto;html=1;exitX=0.5;exitY=1;exitDx=0;exitDy=0;entryX=0.5;entryY=0;entryDx=0;entryDy=0;" edge="1" parent="1" source="fRdi2J-xlvi1yjMBcKha-261" target="fRdi2J-xlvi1yjMBcKha-181">
          <mxGeometry relative="1" as="geometry" />
        </mxCell>
        <mxCell id="fRdi2J-xlvi1yjMBcKha-261" value="기기 제어" style="whiteSpace=wrap;html=1;rounded=1;shadow=1;strokeWidth=1;fontSize=16;align=center;fillColor=#f5f5f5;strokeColor=#666666;" vertex="1" parent="1">
          <mxGeometry x="-354" y="3040" width="125" height="45" as="geometry" />
        </mxCell>
        <mxCell id="fRdi2J-xlvi1yjMBcKha-268" style="edgeStyle=orthogonalEdgeStyle;rounded=0;orthogonalLoop=1;jettySize=auto;html=1;exitX=0.5;exitY=1;exitDx=0;exitDy=0;entryX=0.5;entryY=0;entryDx=0;entryDy=0;" edge="1" parent="1" source="fRdi2J-xlvi1yjMBcKha-262" target="fRdi2J-xlvi1yjMBcKha-183">
          <mxGeometry relative="1" as="geometry" />
        </mxCell>
        <mxCell id="fRdi2J-xlvi1yjMBcKha-262" value="기기 제어" style="whiteSpace=wrap;html=1;rounded=1;shadow=1;strokeWidth=1;fontSize=16;align=center;fillColor=#f5f5f5;strokeColor=#666666;" vertex="1" parent="1">
          <mxGeometry x="-37.5" y="3040" width="125" height="45" as="geometry" />
        </mxCell>
        <mxCell id="fRdi2J-xlvi1yjMBcKha-270" style="edgeStyle=orthogonalEdgeStyle;rounded=0;orthogonalLoop=1;jettySize=auto;html=1;exitX=0.5;exitY=1;exitDx=0;exitDy=0;entryX=0.5;entryY=0;entryDx=0;entryDy=0;" edge="1" parent="1" source="fRdi2J-xlvi1yjMBcKha-263" target="fRdi2J-xlvi1yjMBcKha-189">
          <mxGeometry relative="1" as="geometry" />
        </mxCell>
        <mxCell id="fRdi2J-xlvi1yjMBcKha-263" value="기기 제어" style="whiteSpace=wrap;html=1;rounded=1;shadow=1;strokeWidth=1;fontSize=16;align=center;fillColor=#f5f5f5;strokeColor=#666666;" vertex="1" parent="1">
          <mxGeometry x="601" y="3040" width="125" height="45" as="geometry" />
        </mxCell>
        <mxCell id="fRdi2J-xlvi1yjMBcKha-269" style="edgeStyle=orthogonalEdgeStyle;rounded=0;orthogonalLoop=1;jettySize=auto;html=1;exitX=0.5;exitY=1;exitDx=0;exitDy=0;entryX=0.5;entryY=0;entryDx=0;entryDy=0;" edge="1" parent="1" source="fRdi2J-xlvi1yjMBcKha-264" target="fRdi2J-xlvi1yjMBcKha-187">
          <mxGeometry relative="1" as="geometry" />
        </mxCell>
        <mxCell id="fRdi2J-xlvi1yjMBcKha-264" value="기기 제어" style="whiteSpace=wrap;html=1;rounded=1;shadow=1;strokeWidth=1;fontSize=16;align=center;fillColor=#f5f5f5;strokeColor=#666666;" vertex="1" parent="1">
          <mxGeometry x="281" y="3040" width="125" height="45" as="geometry" />
        </mxCell>
      </root>
    </mxGraphModel>
  </diagram>
</mxfile>
